<svg id="visual" viewBox="0 0 900 600" width="900" height="600" xmlns="http://www.w3.org/2000/svg" xmlns:xlink="http://www.w3.org/1999/xlink" version="1.1"><rect x="0" y="0" width="900" height="600" fill="#001220"></rect><defs><linearGradient id="grad1_0" x1="33.3%" y1="0%" x2="100%" y2="100%"><stop offset="20%" stop-color="#001220" stop-opacity="1"></stop><stop offset="80%" stop-color="#001220" stop-opacity="1"></stop></linearGradient></defs><defs><linearGradient id="grad2_0" x1="0%" y1="0%" x2="66.7%" y2="100%"><stop offset="20%" stop-color="#001220" stop-opacity="1"></stop><stop offset="80%" stop-color="#001220" stop-opacity="1"></stop></linearGradient></defs><g transform="translate(900, 0)"><path d="M0 216.3C-32.4 201.6 -64.7 186.8 -98.5 170.6C-132.3 154.4 -167.5 136.8 -187.3 108.2C-207.2 79.5 -211.8 39.7 -216.3 0L0 0Z" fill="#ffffff"></path></g><g transform="translate(0, 600)"><path d="M0 -216.3C40.9 -212.4 81.8 -208.6 108.2 -187.3C134.5 -166.1 146.3 -127.6 161.9 -93.5C177.6 -59.4 196.9 -29.7 216.3 0L0 0Z" fill="#ffffff"></path></g></svg>